<svg xmlns="http://www.w3.org/2000/svg" viewBox="0 0 136.44 89"><defs><style>.a{fill:#fff;stroke:#231f20;stroke-miterlimit:10;stroke-width:6px;}</style></defs><title>Email Icon</title><rect class="a" x="3" y="3" width="130.44" height="83" rx="5.41"/><path class="a" d="M102,88.52,42.78,145.15c0,2.4,2.42,4.35,5.41,4.35H167.81c3,0,5.41-1.95,5.41-4.35L114,88.52A9.09,9.09,0,0,0,102,88.52Z" transform="translate(-39.78 -63.5)"/><path class="a" d="M102,127.48,42.78,70.85c0-2.4,2.42-4.35,5.41-4.35H167.81c3,0,5.41,2,5.41,4.35L114,127.48A9.09,9.09,0,0,1,102,127.48Z" transform="translate(-39.78 -63.5)"/></svg>