<svg xmlns="http://www.w3.org/2000/svg" viewBox="0 0 166.86 162.74"><defs><style>.a{fill:#191717;fill-rule:evenodd;}</style></defs><title>GitHub</title><path class="a" d="M108,26.07a83.44,83.44,0,0,0-26.36,162.6c4.17.76,5.69-1.81,5.69-4,0-2-.07-7.23-.11-14.19-23.21,5-28.1-11.19-28.1-11.19-3.8-9.64-9.27-12.2-9.27-12.2-7.57-5.18.57-5.07.57-5.07,8.38.59,12.78,8.6,12.78,8.6,7.45,12.74,19.53,9.06,24.29,6.93.75-5.39,2.91-9.07,5.29-11.16-18.52-2.1-38-9.26-38-41.23a32.24,32.24,0,0,1,8.59-22.39c-.86-2.11-3.72-10.59.81-22.08,0,0,7-2.24,23,8.55a79.29,79.29,0,0,1,41.77,0c15.93-10.79,22.92-8.55,22.92-8.55,4.55,11.49,1.69,20,.83,22.08a32.18,32.18,0,0,1,8.58,22.39c0,32.05-19.51,39.1-38.09,41.17,3,2.57,5.66,7.67,5.66,15.45,0,11.15-.1,20.15-.1,22.89,0,2.23,1.5,4.82,5.73,4A83.44,83.44,0,0,0,108,26.07Z" transform="translate(-24.57 -26.07)"/></svg>