<svg xmlns="http://www.w3.org/2000/svg" viewBox="0 0 657.83 662"><defs><style>.a{fill:#069;}.b{fill:#fff;}</style></defs><title>linkedin_square</title><path class="a" d="M0,47.42C0,21.25,21.77,0,48.62,0H609.21c26.86,0,48.62,21.25,48.62,47.42V614.59c0,26.18-21.76,47.41-48.62,47.41H48.62C21.78,662,0,640.77,0,614.6V47.41Z" transform="translate(0 0)"/><path class="b" d="M199.41,554.16V255.23H100.05V554.16h99.36ZM149.75,214.42c34.64,0,56.21-22.95,56.21-51.64-.65-29.33-21.57-51.65-55.55-51.65s-56.22,22.32-56.22,51.65c0,28.69,21.56,51.64,54.91,51.64h.65ZM254.41,554.16h99.35V387.24c0-8.92.65-17.86,3.27-24.24,7.18-17.86,23.53-36.34,51-36.34,35.95,0,50.33,27.41,50.33,67.6v159.9h99.35V382.76c0-91.81-49-134.54-114.38-134.54-53.59,0-77.13,30-90.21,50.36h.66V255.24H254.41c1.3,28,0,298.93,0,298.93Z" transform="translate(0 0)"/></svg>