<svg xmlns="http://www.w3.org/2000/svg" xmlns:xlink="http://www.w3.org/1999/xlink" viewBox="0 0 785.67 346.23"><defs><style>.a{fill:none;}.b{clip-path:url(#a);}.c{fill:#f2f2f2;}.d{fill:#eb6896;}</style><clipPath id="a" transform="translate(-252.06 -165.04)"><rect class="a" x="65" y="-87.1" width="1379.5" height="717.1"/></clipPath></defs><title>Background_Space_Flattened_Text</title><g class="b"><path class="c" d="M292.63,376.79c4.2-16.34,13.67-27.78,28.65-32.65,12.41-4,24.85-1.29,27.56,10.44,3.46,15-9,27.23-24.45,32.24a67,67,0,0,1-13.11,3c-2.63,18.51-5.73,44.92-5.06,47.85.28,1.18.84,1.62,2,1.25,3.14-1,24.08-14.6,33.21-17.57,2.42-.79,3.52,0,3.75,1s.06,1.56-.71,3.54c-2.27,5.47-5.86,15.15-8,22.47-.48,1.26-.95,1.89-1.95,2.21-3.7,1.21-7.3-4.4-27.56,2.18-8.84,2.87-16.1,6.65-18.24,7.34s-3.23-.05-3.64-1.81c-2.37-10.27,1.18-44.7,4.63-66.33-1.14.38-2.32.6-3.46,1-10,3.24-13.14,8.84-11.68,15.15s5.94,8.48,6.24,9.8c.24,1-.23,1.65-1.51,2.07-4.42,1.44-23.18-2.09-26.84-17.93-2.17-9.39,5.17-20.14,15.87-23.61C277.3,375.47,285.07,375.94,292.63,376.79Zm20.56.73a41.8,41.8,0,0,0,7.56-1.82c7.7-2.5,11.11-11.65,10-16.64-1-4.26-3.56-5.47-6.85-4.4C319.73,356,316,361.93,313.19,377.52Z" transform="translate(-252.06 -165.04)"/><path class="c" d="M368.35,430.42c.51,2.2.38,3.66-1.9,4.4-6.7,2.18-16.38,3.43-17.6-1.85-2.44-10.56,6.95-36.32,4.24-48.06-.34-1.47.71-2.91,3.42-3.79,8.55-2.79,15.36,2.1,16.31,6.21C374.78,395.84,365.77,419.27,368.35,430.42Zm-1.58-83.87c5.14-1.67,9.77.45,11,5.88,1.73,7.49-2.21,16.34-8.77,18.47-5,1.62-10.19-.32-11.41-5.6C355.85,357.67,359.79,348.82,366.77,346.55Z" transform="translate(-252.06 -165.04)"/><path class="c" d="M411.6,376.62c-2.14.7-6.11,5.45-8.72,13.4-3.13,9.69-6,24.36-4.57,30.67.5,2.2.38,3.66-1.9,4.4-6.71,2.18-16.39,3.43-17.61-1.85-2.43-10.57,5.67-35.91,3-47.65-.34-1.47.71-2.91,3.42-3.79,12.7-4.13,15.74,6.4,16.31,6.21s7.65-14,20.49-18.17c7.14-2.32,11.73.29,13.08,6.16,2.3,10-6.38,26.84-3.09,41.07,1.69,7.33,7.58,11.57,16.28,8.75,4.42-1.44,6-3.7,7.19-4.08a1.69,1.69,0,0,1,2.26,1.16c.67,2.94-6.08,15.54-21.34,20.5-12,3.89-23.4-1.07-26.15-13-4-17.16,5.56-36.34,4.21-42.21A2,2,0,0,0,411.6,376.62Z" transform="translate(-252.06 -165.04)"/><path class="c" d="M495.48,383.27c1.16,5,2.26,5.11,2.66,6.87.24,1-.3,2-1.73,2.46-11.41,3.7-17.87-3-18.87-2.7-1.86.6-8.52,11.6-20.22,15.4-7.13,2.31-13.56-1-15.46-9.18-4.54-19.66,10.65-46.2,27.77-51.76,5.56-1.81,9.71-.47,10.13-.61a.92.92,0,0,0,.62-.67c2.6-16.62,4.92-33.15,3.73-38.28-.34-1.47.71-2.92,3.42-3.8,6-1.94,15.36,2.11,16.31,6.22s-2,22.42-5.18,40.64C496.37,361.22,493.52,374.77,495.48,383.27ZM461.37,387a2.24,2.24,0,0,0,3,1.85c7.28-2.36,14.26-29.24,13.35-33.2-.38-1.61-1.37-1.92-2.79-1.46C466.25,357,459.17,377.41,461.37,387Z" transform="translate(-252.06 -165.04)"/><path class="c" d="M541.06,343.55c-1.57.51-2.06-.28-3-2.2-1.42-2.85-4-5.81-7.23-4.74a3.53,3.53,0,0,0-2.54,4.29c1.73,7.48,18.82,4.45,21.4,15.6,2.33,10.13-4.28,20-21,25.43-14.55,4.72-24.05-.55-25-4.51-1-4.25,5.94-13.44,10.79-15,2-.65,2.77.05,3.33,1.13,2.15,4.66,6.24,7.11,9.38,6.09a3.25,3.25,0,0,0,2.35-3.76c-2.17-9.39-19.87-5.05-22.42-16.06C505,340,515,329.62,529.55,324.89c11.69-3.8,19.75-.11,20.94,5C551.37,333.73,544.63,342.39,541.06,343.55Z" transform="translate(-252.06 -165.04)"/><path class="c" d="M611.25,355.28c-11.56,3.76-18-3-19-2.65-1.71.55-7.09,11.13-20.07,15.35-7.27,2.37-13-1.14-14.89-9.36-4.4-19.07,9.65-45.87,32.91-53.43,12.26-4,22.8.48,23.58,3.85.64,2.79-7.47,19.46-3.3,37.51,1,4.4,2.11,4.51,2.52,6.28C613.22,353.85,612.67,354.82,611.25,355.28Zm-34.11-6.9a2.28,2.28,0,0,0,3.18,1.81c7.56-2.46,13.88-30.22,13.14-33.45-.31-1.32-1-1.72-2.16-1.35C582.6,318.22,574.94,338.85,577.14,348.38Z" transform="translate(-252.06 -165.04)"/><path class="c" d="M643.76,330.05c1.86-.6,6.77-4.57,8.46-9.85,4.64-14.44,4.33-24.43,2.3-33.23a2.81,2.81,0,0,1,2.13-3.38c10.42-3.38,17.94.64,19,5.33.68,2.94-1.91,18.29-3.19,34-2.18,26.41-1.44,64.18-27.68,72.71-17.84,5.79-30.14-6.3-31.25-11.14a2.44,2.44,0,0,1,1.63-2.89c2-.65,4.49,2.17,13.19-.66,21.11-6.86,23.89-32.69,25.16-47.13-.11-.44,0-.78-.1-1.08a.3.3,0,0,0-.35-.2c-1.57.51-6.6,11.29-19.86,15.6-6.71,2.18-12.16.48-13.82-6.71-2.47-10.71,6.3-32.48,3.59-44.22-.34-1.47.85-3,3.42-3.79,7.13-2.32,15.61,1.86,17,7.88,1.93,8.36-4.52,19.61-2.83,26.94A2.23,2.23,0,0,0,643.76,330.05Z" transform="translate(-252.06 -165.04)"/><path class="c" d="M763.32,305.87c-22.68,7.37-32.32,1.51-33.2-2.3-1.18-5.14,5.36-55.84,9.36-76.38.8-4.52,4.76-9.28,5.12-9.71-16.43,7.23-28.16,23.5-25,37.14,2.13,9.25,6.17,10.14,6.55,11.76.2.88-.38,1.7-1.95,2.21-6.84,2.22-22.56-.09-25.4-12.41-5-21.86,24.75-42.9,53.85-52.35,25.53-8.3,50.33-4.53,56.56,22.47C817.43,262,791.56,296.69,763.32,305.87Zm.28-94.41a2.32,2.32,0,0,0-1.48,2.22c-4,25.9-11.33,75.13-10.48,78.79.71,3.09,4.46,4.71,9.59,3,16.83-5.47,31.52-34.85,24.51-65.22C781.68,212.69,769.6,209.51,763.6,211.46Z" transform="translate(-252.06 -165.04)"/><path class="c" d="M869.17,271.48c-11.55,3.75-18-3-19-2.66-1.71.56-7.09,11.14-20.07,15.36-7.27,2.36-13-1.14-14.89-9.36-4.4-19.07,9.65-45.88,32.91-53.43,12.27-4,22.8.47,23.58,3.85.65,2.78-7.47,19.46-3.3,37.5,1,4.41,2.12,4.52,2.52,6.28C871.14,270.05,870.6,271,869.17,271.48Zm-34.1-6.9a2.28,2.28,0,0,0,3.17,1.81c7.56-2.46,13.88-30.22,13.14-33.45-.31-1.32-1-1.72-2.15-1.35C840.52,234.42,832.86,255,835.07,264.58Z" transform="translate(-252.06 -165.04)"/><path class="c" d="M911.51,250.31c-.06-.3-.35-.2-.49-.16-1,.33-6.33,9.79-18.74,13.82-7.28,2.36-13-1.14-14.89-9.36-4.4-19.07,9.65-45.88,32.9-53.43,12.27-4,22.67.52,23.45,3.89s-4.48,12.5-4.38,32.18c.12,26.46.85,65.49-26.82,74.49-17.83,5.79-30.1-6.16-31.21-11a2.44,2.44,0,0,1,1.63-2.89c2-.65,4.49,2.17,13.19-.66,21.11-6.86,24.27-31.7,25.32-45.77A2.27,2.27,0,0,0,911.51,250.31Zm-14.25-5.94a2.29,2.29,0,0,0,3.18,1.81c7.56-2.46,13.88-30.22,13.13-33.45-.3-1.32-1-1.72-2.15-1.35C902.72,214.21,895.06,234.83,897.26,244.37Z" transform="translate(-252.06 -165.04)"/><path class="c" d="M983.79,212.63a2.35,2.35,0,0,1,2.86,1.75c.61,2.64-4,20.54-26.4,27.82-9.7,3.15-19.22-.22-21.69-10.93-4.2-18.2,10.82-42.79,30.37-49.14,11-3.57,16.61.91,17.94,6.63,2.6,11.29-13.2,26.52-25.47,33.19,1.57,2.8,4.26,3.82,8.4,2.48C979.5,221.28,981.65,213.32,983.79,212.63Zm-24.17.91c8.66-5.65,14.77-15,13.72-19.6a2.08,2.08,0,0,0-3-1.7C965.77,193.72,959.83,203.85,959.62,213.54Z" transform="translate(-252.06 -165.04)"/><path class="c" d="M1028.23,185.25c-1.57.51-2.06-.27-3-2.19-1.43-2.85-3.95-5.81-7.23-4.75a3.55,3.55,0,0,0-2.54,4.3c1.73,7.48,18.82,4.45,21.39,15.6,2.34,10.12-4.27,20-21,25.42-14.55,4.73-24-.54-25-4.5-1-4.26,5.95-13.45,10.8-15,2-.65,2.77,0,3.32,1.12,2.16,4.67,6.25,7.12,9.39,6.1a3.25,3.25,0,0,0,2.35-3.76c-2.17-9.39-19.88-5-22.42-16.06-2.27-9.83,7.76-20.18,22.31-24.91,11.7-3.8,19.76-.11,21,5C1038.54,175.44,1031.8,184.1,1028.23,185.25Z" transform="translate(-252.06 -165.04)"/><path class="d" d="M494.35,495.27l7.23-2.35.26,5-7.23,2.35.5,9.43-4.95,1.61-.49-9.43L486.05,503l1.65-5.58,1.71-.56-.51-9.67c-.36-6.95-.34-11.67,11.7-13l.27,5.17c-7.32.61-7.23,2.34-7.05,5.65Z" transform="translate(-252.06 -165.04)"/><path class="d" d="M524.37,466.46l1.34,25.39c.35,6.82-3.37,9.59-6.79,10.7-3.73,1.21-7.25.59-7.59-6L510,471.13l4.94-1.6,1.35,25.8c.12,2.27.92,2.73,2.44,2.24s2.18-1.34,2-3.7l-1.35-25.8Z" transform="translate(-252.06 -165.04)"/><path class="d" d="M548.9,492.18,537,496l-1.74-33.17,5-1.61,1.48,28.33,6.92-2.25Z" transform="translate(-252.06 -165.04)"/><path class="d" d="M569.9,485.36,558,489.21l-1.74-33.16,5-1.61,1.48,28.33,6.92-2.25Z" transform="translate(-252.06 -165.04)"/><path class="d" d="M591.07,468.64,577.65,473l-.24-4.43,13.43-4.36Z" transform="translate(-252.06 -165.04)"/><path class="d" d="M614.12,461.65c.36,7-.62,12-12.66,13.28l-.27-5.17c7.32-.61,8.18-2.65,8-6l0-.79L601,465.67l-.77-14.6c-.36-6.95.65-12,12.65-13.28l.28,5.17c-7.32.61-8.18,2.66-8,6l.53,10.17,8.18-2.66Z" transform="translate(-252.06 -165.04)"/><path class="d" d="M634.43,435.83l-4.11,1.34,1.47,28.08L627,466.82l-1.47-28.08-5.33,1.73,1.64-5.71,12.36-4Z" transform="translate(-252.06 -165.04)"/><path class="d" d="M642.82,435.71c-.35-6.61,3-9.46,6.71-10.67,3.5-1.14,7.31-.91,7.67,6l1.34,25.52-4.87,1.58-.5-9.43-4.56,1.48.49,9.43-4.94,1.61Zm9.49-3.46c-.12-2.36-1-2.71-2.44-2.24s-2.25,1.45-2.13,3.72l.61,11.5,4.56-1.48Z" transform="translate(-252.06 -165.04)"/><path class="d" d="M667.7,429.1c-.37-7,.65-12,12.65-13.28l.27,5.17c-7.32.61-8.18,2.66-8,6l.84,16c.17,3.31,1.21,4.74,8.35.65l.27,5.17c-11.73,6.42-13.23,2.2-13.6-4.75Z" transform="translate(-252.06 -165.04)"/><path class="d" d="M700.58,409.16l4.87-1.58.48,9.18c.34,6.49-.29,9.22-2.4,11.8l3-1,.31,5.91c.3,5.79,2.28,6.62,2.28,6.62l-4.87,1.58s-1.93-.08-2.28-6.62l-.11-2.19-2,.64-2.59.84.5,9.43-5,1.61-.49-9.43-3.61,1.17,1.64-5.58,1.71-.55-1-18.78,4.95-1.6,1,18.77,1.14-.37c2.48-.8,3.29-3.8,3-9.47Z" transform="translate(-252.06 -165.04)"/><path class="d" d="M757.14,415.73c.37,7.11-2.94,10.21-6.48,11.36-1.6.52-4.29.76-5.28-1-.73,2.34-3.28,3.88-4.8,4.37-3.69,1.2-6.93.58-7.33-7.08L732,399l4.95-1.61,1.36,25.93c.09,1.86.9,2.52,2.42,2a3.13,3.13,0,0,0,2.14-3.51l-1.36-25.93,4.87-1.58,1.35,25.8c.1,1.86.92,2.65,2.44,2.15s2.22-1.77,2.13-3.63l-1.36-25.81,5-1.6Z" transform="translate(-252.06 -165.04)"/><path class="d" d="M772.52,410.82c.17,3.3,1.21,4.73,8.35.65l.27,5.17c-11.73,6.42-13.23,2.19-13.6-4.76l-.78-15c-.36-6.94.65-12,12.65-13.28l.27,5.17c-7.32.62-8.18,2.66-8,6l.53,10.21,7.23-2.34.26,5L772.47,410Z" transform="translate(-252.06 -165.04)"/><path class="d" d="M795.77,378.24c6.39-2.08,8.38-.88,8.74,6l.11,2.1c.23,4.39-.37,7.62-2.48,10.19l3-1,.12,2.31c.43,8.28-1.34,11.46-7.69,13.52l-6.12,2-1.74-33.17Zm-.16,19.14,1.14-.37c2.47-.8,3.28-3.8,3-9.46l-.1-2c-.14-2.69-.75-3.12-3.41-2.26l-1.33.43Zm4.86,3.47-2,.65-2.55.83.23,4.39,1.33-.44c2.66-.86,3.2-1.67,3.06-4.35Z" transform="translate(-252.06 -165.04)"/><path class="d" d="M831.18,366.73l6.09-2c6.35-2.06,8.39-.08,8.82,8.2l.6,11.45c.44,8.27-1.33,11.45-7.68,13.52l-6.09,2Zm10,5.3c-.14-2.68-.74-3.12-3.4-2.25l-1.34.43,1.21,23,1.33-.43c2.66-.86,3.2-1.67,3.06-4.36Z" transform="translate(-252.06 -165.04)"/><path class="d" d="M862.22,381.67c.17,3.31,1.22,4.74,8.35.65l.27,5.17c-11.73,6.42-13.23,2.2-13.59-4.75l-.79-15c-.36-6.95.65-12,12.65-13.28l.27,5.17c-7.31.61-8.17,2.65-8,6l.54,10.22,7.22-2.35.26,5-7.22,2.35Z" transform="translate(-252.06 -165.04)"/><path class="d" d="M892.77,346.72l-4.16,35.08-4.75,1.54L876.53,352l5.21-1.69,4,21.08,1.89-23Z" transform="translate(-252.06 -165.04)"/><path class="d" d="M906.88,367.16c.17,3.3,1.22,4.73,8.35.65l.27,5.17c-11.73,6.42-13.23,2.19-13.59-4.75l-.79-15c-.36-6.95.65-12,12.65-13.28l.27,5.17c-7.31.61-8.17,2.65-8,6l.54,10.22L913.8,359l.26,5-7.22,2.35Z" transform="translate(-252.06 -165.04)"/><path class="d" d="M937.65,365.87l-11.87,3.85L924,336.56l5-1.61,1.48,28.33L937.4,361Z" transform="translate(-252.06 -165.04)"/><path class="d" d="M953.48,361.56c-3.73,1.22-7.24.59-7.59-6L945,337.59c-.35-6.62,3-9.47,6.71-10.68,3.43-1.11,7.31-.82,7.67,6l.94,17.95C960.63,357.69,956.9,360.45,953.48,361.56Zm-2.62-7.22c.12,2.28.92,2.73,2.44,2.24s2.17-1.34,2.05-3.7l-1-18.77c-.12-2.36-.91-2.73-2.36-2.26s-2.25,1.44-2.13,3.72Z" transform="translate(-252.06 -165.04)"/><path class="d" d="M976,343.8l.49,9.43-4.95,1.61-1.73-33.17,6.08-2c6.35-2.07,8.39-.08,8.83,8.19l.1,2c.43,8.27-1.33,11.45-7.68,13.51Zm-.27-5,1.33-.43c2.67-.87,3.2-1.67,3.06-4.36l-.37-7c-.14-2.69-.74-3.12-3.4-2.26l-1.33.43Z" transform="translate(-252.06 -165.04)"/><path class="d" d="M999.82,337c.17,3.31,1.21,4.74,8.35.65l.27,5.17c-11.73,6.42-13.23,2.2-13.59-4.75l-.79-15c-.36-6.95.65-12,12.65-13.28L1007,315c-7.32.61-8.18,2.66-8,6l.53,10.21,7.23-2.35.26,5-7.23,2.35Z" transform="translate(-252.06 -165.04)"/><path class="d" d="M1023.07,304.38c6.39-2.08,8.38-.91,8.74,6,.3,5.67.17,9.16-2.37,12.3l3-1,.31,5.92c.3,5.75,2.28,6.62,2.28,6.62l-4.87,1.58c-.07.06-2-.25-2.28-6.62l-.12-2.19-4.56,1.48.49,9.43-4.94,1.61L1017,306.36Zm-.16,19.15,1.14-.37c2.47-.81,3.28-3.84,3-9.47l-.11-2c-.14-2.69-.74-3.13-3.41-2.26l-1.33.43Z" transform="translate(-252.06 -165.04)"/></g></svg>